<?xml version="1.0" standalone="no"?><!DOCTYPE svg PUBLIC "-//W3C//DTD SVG 1.1//EN" "http://www.w3.org/Graphics/SVG/1.1/DTD/svg11.dtd"><svg t="1714391014439" class="icon" viewBox="0 0 1078 1024" version="1.1" xmlns="http://www.w3.org/2000/svg" p-id="45248" xmlns:xlink="http://www.w3.org/1999/xlink" width="210.546875" height="200"><path d="M1025.920004 525.391668C1025.920004 639.488247 993.399141 742.108182 928.357411 833.251487 863.31568 924.394792 779.292958 987.465184 676.28924 1022.462659 664.298257 1024.732133 655.532092 1023.14676 649.990744 1017.706545 644.449391 1012.266331 641.679105 1005.444384 641.679881 997.240706L641.679881 853.368912C641.679881 809.266493 630.143425 776.989522 607.070517 756.537999 632.388096 753.803179 655.148271 749.715659 675.351048 744.27544 695.553829 738.835225 716.424413 729.976877 737.962802 717.700399 759.501198 705.423916 777.487667 690.31079 791.92222 672.361021 806.356774 654.411252 818.120488 630.5416 827.213374 600.75206 836.306255 570.962526 840.852698 536.750973 840.852698 498.117406 840.852698 443.105122 823.32075 396.282594 788.256864 357.649823 804.680462 316.281432 802.904693 269.924254 782.929568 218.578288 770.484058 214.476053 752.497584 216.977804 728.97015 226.083543 705.442716 235.189283 685.026659 245.196687 667.721979 256.105755L642.404793 272.469359C601.118148 260.658227 558.495895 254.752662 514.53803 254.752662 470.580164 254.752662 427.957909 260.658227 386.671266 272.469359 379.567428 267.465855 370.133844 261.327615 358.370515 254.054637 346.607186 246.78166 328.066346 238.025132 302.747995 227.785052 277.429644 217.544974 258.334824 214.475655 245.463536 218.577095 225.914188 269.952493 224.365687 316.309671 240.818031 357.64863 205.754143 396.282197 188.222198 443.104724 188.222198 498.116213 188.222198 536.74978 192.76864 570.844797 201.861522 600.401259 210.954404 629.957727 222.604684 653.827379 236.812361 672.01022 251.020038 690.19306 268.893072 705.422326 290.431463 717.698012 311.969855 729.973697 332.840439 738.832046 353.043219 744.273053 373.245998 749.714064 396.006175 753.801584 421.323749 756.535618 403.564541 772.8849 392.681519 796.288806 388.674684 826.747333 379.354926 831.285483 369.366974 834.689301 358.710828 836.958775 348.054682 839.228249 335.395895 840.362986 320.734467 840.362986 306.073039 840.362986 291.538646 835.475624 277.131287 825.700894 262.723929 815.926165 250.406231 801.715103 240.178196 783.067703 231.738746 768.521751 220.96955 756.710619 207.870609 747.634313 194.771669 738.558007 183.789195 733.10347 174.923188 731.270709L161.582221 729.219591C152.262463 729.219591 145.82643 730.23779 142.274123 732.274192 138.721815 734.310594 137.613467 736.928881 138.949079 740.129058 140.28469 743.329229 142.288108 746.51469 144.959332 749.685431 147.630556 752.856171 150.514669 755.576281 153.611672 757.845755L158.257177 761.249966C168.032239 765.788116 177.693475 774.428109 187.240885 787.169943 196.788295 799.911772 203.778307 811.504548 208.210923 821.948264L214.859845 837.613844C220.628071 854.893828 230.402745 868.872217 244.183866 879.549005 257.964986 890.225799 272.840081 897.047745 288.80915 900.014845 304.778218 902.981945 320.207681 904.567317 335.097538 904.770958 349.987395 904.974599 362.305092 904.174751 372.050629 902.371426L387.351892 899.622279C387.351892 916.902264 387.465718 937.13543 387.693371 960.321773 387.921023 983.508121 388.034849 995.784599 388.034849 997.151217 388.034849 1005.326256 385.150735 1012.148203 379.382509 1017.617056 373.614282 1023.085909 364.734678 1024.671277 352.743697 1022.373169 249.73998 987.376487 165.717257 924.306095 100.675527 833.161998 35.633797 742.017901 3.112932 639.39796 3.112932 525.302178 3.112932 430.289711 25.972561 342.680678 71.691819 262.475079 117.411076 182.269481 179.454866 118.748458 257.823189 71.91201 336.191512 25.075561 421.763126 1.671655 514.53803 1.700292 607.312932 1.728929 692.884548 25.132835 771.252869 71.91201 849.621191 118.691184 911.664984 182.212207 957.384239 262.475079 1003.103499 342.737952 1025.963126 430.346985 1025.963126 525.302178L1025.920004 525.391668Z" fill="#1296db" p-id="45249"></path></svg>